<?xml version="1.0" encoding="UTF-8"?>
<svg id="Layer_1" xmlns="http://www.w3.org/2000/svg" version="1.1" viewBox="0 0 236.1 230.1">
  <!-- Generator: Adobe Illustrator 29.2.1, SVG Export Plug-In . SVG Version: 2.1.0 Build 116)  -->
  <path d="M196,168c6.1,0,11,4.9,11,11s-4.9,11-11,11-11-4.9-11-11,4.9-11,11-11ZM50,159h50.3v-15h-50.3v-13h146v-15H35v74h15v-31ZM50,83h146v-15H50v-13h50.3v-15H35v68h15v-25ZM236.1,194.3c0,4.6-7.3,14.9-11,18-14.5,12.3-28.1,6.1-44.5,5.4-27.3-1-56.1,6.8-83.2,9.9-27.8,3.2-61.1,3.8-88.6-2.2-3-.6-6.6-1.1-8.8-3.2v-.3h-.1V0h236v194.3h.1ZM221,15H15v195.3c5.1,2.3,12.8,3,18.6,3.5,49.8,4.3,90-9.9,137-12,11.8-.5,26.9,3.2,37,2,5-.6,13.4-7.8,13.4-12.9V15Z"/>
</svg>