<?xml version="1.0" encoding="UTF-8"?><svg id="Layer_1" xmlns="http://www.w3.org/2000/svg" viewBox="0 0 1000 1000"><path d="M592,476c6.08,0,11,4.92,11,11s-4.92,11-11,11-11-4.92-11-11,4.92-11,11-11ZM446,467h33v-15h-33v-13h146v-15h-161v74h15v-31ZM446,391h146v-15h-146v-13h50v-15h-65v68h15v-25ZM632.11,502.34c0,4.63-7.32,14.89-10.99,18.01-14.46,12.29-28.09,6.06-44.47,5.45-27.33-1.01-56.15,6.78-83.17,9.91-27.85,3.23-61.11,3.84-88.58-2.17-2.95-.65-6.58-1.14-8.8-3.2v-.34h-.11v-222h236v182l.11,12.34ZM617,323h-206v191l.11,4.34c4.96,2.33,12.68,2.98,18.51,3.49,49.78,4.34,90.01-9.87,137-11.98,11.79-.53,26.86,3.25,37.02,2.01,5.03-.62,13.36-7.8,13.36-12.86v-176Z"/></svg>